<?xml version="1.0" encoding="UTF-8"?><svg id="a" xmlns="http://www.w3.org/2000/svg" xmlns:xlink="http://www.w3.org/1999/xlink" viewBox="0 0 350 350"><defs><style>.e{fill:url(#d);}.f{mask:url(#b);}.g{filter:url(#c);}.h{fill:#fbf281;}.i{stroke:#000;stroke-miterlimit:10;stroke-width:7px;}</style><filter id="c" x="-51.61" y="6.39" width="401.64" height="365.4" color-interpolation-filters="sRGB" filterUnits="userSpaceOnUse"><feFlood flood-color="#fff" result="bg"/><feBlend in="SourceGraphic" in2="bg"/></filter><mask id="b" x="-51.61" y="6.39" width="401.64" height="365.4" maskUnits="userSpaceOnUse"><g class="g"><path d="M248.69,271.79c-15,3.77-33.75,13.64-39.17,29.33h0c-.72,2.17-.89,4.48-.47,6.73h0c-30.97,16.85-64.94,27.22-100.21,19.78-30.29-18.85-48.53-54.33-56.62-88.06h0c1.86-1.29,3.35-3.03,4.36-5.06h0c7.32-14.76,1.66-35.18-5.61-48.77h0c-4.54-8.07-17.62-21.46-24.89-8.08h0c-7.69,14.19-4.22,33.5,2.75,47.22h0c1.59,2.94,3.42,5.75,5.48,8.39h0c6.96,34.65,25.74,66.5,54.19,86.41h0c12.31,7.4,27.4,14.1,40.53,17.46h0c32.29,9.63,70.18-3.05,97.63-20.12h0c3.38-.27,6.75-.8,10.05-1.6h0c14.66-4.18,31.6-14.78,36.03-30.4h0c4.12-14.59-14.63-15.4-24.06-13.21h0Z"/><path class="i" d="M100.15,335.46c-50.7-23.65-93.4-56.64-120.23-92.89-27.27-36.85-34.96-72.85-21.67-101.36,13.3-28.51,45.82-45.75,91.58-48.53,45.01-2.74,97.73,8.77,148.43,32.43,50.7,23.65,93.4,56.64,120.23,92.89,27.27,36.85,34.96,72.85,21.67,101.36-13.3,28.51-45.82,45.75-91.58,48.53-45.01,2.74-97.73-8.78-148.43-32.43ZM195.63,130.76c-102.67-47.89-207.02-42.2-232.61,12.67C-62.58,198.31.12,281.92,102.79,329.81c102.67,47.89,207.02,42.2,232.61-12.67,25.6-54.88-37.1-138.48-139.77-186.37Z"/></g></mask><radialGradient id="d" cx="270.44" cy="187.1" fx="254.31" fy="477.32" r="312.6" gradientTransform="translate(-14.67 -58.66) rotate(22.83) scale(1 .71)" gradientUnits="userSpaceOnUse"><stop offset=".05" stop-color="#ed1c24"/><stop offset=".12" stop-color="#ed2323"/><stop offset=".21" stop-color="#ef3721"/><stop offset=".33" stop-color="#f3581d"/><stop offset=".46" stop-color="#f78518"/><stop offset=".59" stop-color="#fdb913"/><stop offset=".6" stop-color="#fcba16"/><stop offset=".66" stop-color="#fccf3f"/><stop offset=".73" stop-color="#fbdf5d"/><stop offset=".78" stop-color="#fbe86f"/><stop offset=".82" stop-color="#fbec76"/><stop offset=".86" stop-color="#fbf07e"/><stop offset=".92" stop-color="#fbf281"/></radialGradient></defs><circle class="h" cx="240.05" cy="35.55" r="22.49"/><g class="f"><circle class="e" cx="175" cy="175" r="168.57"/></g></svg>