<?xml version="1.0" encoding="UTF-8"?><svg id="a" xmlns="http://www.w3.org/2000/svg" viewBox="0 0 250 250"><defs><style>.c{fill:#d59849;}.d{fill:#819ac7;}.e{fill:#eec65b;}</style></defs><path class="c" d="M75.61,69.15c-12.83,34.78-14.45,76.02-4.86,112.43,36.41,9.61,77.66,8.01,112.46-4.83,14.37-5.59,29.96-14.39,38.15-27.71,1.6-7.05,2.45-14.38,2.45-21.92,0-54.45-44.14-98.59-98.59-98.59-7.5,0-14.81.84-21.84,2.43-13.56,8.3-22.01,23.61-27.77,38.17Z"/><path class="d" d="M215.58,78.61c2.17-4.24,3.41-9.05,3.41-14.15,0-17.17-13.92-31.1-31.1-31.1-5.1,0-9.9,1.23-14.15,3.41,17.7,9.54,32.29,24.14,41.84,41.84Z"/><path class="e" d="M55.37,176.74c1.74.64,3.5,1.24,5.26,1.83-7.15-25.8-7.59-53.46-2.68-79.69,4.62-22.99,15.03-50.23,34.73-64.83C54.22,47.49,26.62,84.09,26.62,127.14c0,13.92,2.89,27.16,8.1,39.17,6.48,4.28,13.65,7.67,20.65,10.44Z"/><path class="e" d="M68.38,200.05c-1.7-3.75-3.22-7.57-4.59-11.44-8.03-2.8-15.96-6.37-23.18-10.83,8.39,13.98,20.14,25.71,34.14,34.06-2.43-3.9-4.56-7.89-6.37-11.79Z"/><path class="e" d="M186.27,183.97c-31.44,14.21-67.48,16.74-101.17,10.43-3.69-.74-7.5-1.64-11.34-2.69.59,1.77,1.19,3.54,1.83,5.28,2.69,6.92,6.13,14.12,10.46,20.65,12.01,5.2,25.25,8.09,39.16,8.09,42.94,0,79.46-27.45,92.98-65.75-8.05,10.57-20.42,18.65-31.93,24Z"/></svg>
