<?xml version="1.0" encoding="UTF-8"?><svg id="Layer_1" xmlns="http://www.w3.org/2000/svg" viewBox="0 0 1331.89 490.85"><defs><style>.cls-1{fill:#dc6e14;}.cls-1,.cls-2,.cls-3{stroke-width:0px;}.cls-2{fill:#fea713;}.cls-4{fill:#db1f58;font-family:Urbanist-Regular, Urbanist;font-size:281.38px;font-variation-settings:'wght' 400;}.cls-3{fill:#ffd013;}</style></defs><path class="cls-1" d="M264.13,311.72c-11.42-1.88-19.32-12.57-17.64-23.86s12.29-18.92,23.71-17.04c11.42,1.88,19.32,12.57,17.64,23.86-1.68,11.29-12.29,18.92-23.71,17.04Z"/><path class="cls-1" d="M354.87,305.74c6.26-42.19,18.44-82.01,34.33-112.31-59.85-3.73-113.14,37.95-122.03,97.84-8.89,59.89,29.78,116.74,87.85,132.47-6.35-33.97-6.41-75.8-.15-118Z"/><path class="cls-1" d="M367.05,426.35c64.65,10.67,124.75-32.52,134.24-96.45.95-6.39,1.35-12.75,1.25-19.03-4.57-16.09-16.96-32.21-36.34-46.85-16.72-12.63-44.77-28.72-87.84-39.22-.14.37-.28.74-.42,1.11,29.61,8.01,57.69,21.01,78.32,36.59,27.69,20.91,41.09,44.86,37.74,67.44-3.35,22.57-23.05,41.06-55.48,52.06-24.02,8.15-54.32,11.48-84.66,9.64.81,11.68,2.22,22.7,4.18,32.88,2.95.72,5.95,1.33,9,1.83Z"/><path class="cls-1" d="M495.9,351.54c2.44-6.89,4.27-14.12,5.38-21.64.95-6.39,1.35-12.75,1.25-19.03-4.57-16.09-16.96-32.21-36.34-46.85-16.72-12.63-44.77-28.72-87.84-39.22-.14.37-.28.74-.42,1.11,29.61,8.01,57.69,21.01,78.32,36.59,27.69,20.91,41.09,44.86,37.74,67.44-3.35,22.57-23.05,41.06-55.48,52.06-24.02,8.15-54.32,11.48-84.66,9.64.03.4.06.8.09,1.2,71.64,6.18,122.61-13.24,141.95-41.29Z"/><path class="cls-1" d="M495.9,351.54c-19.34,28.05-70.31,47.47-141.95,41.29.83,11.24,2.2,21.85,4.1,31.68,2.95.72,5.95,1.33,9,1.83,57.04,9.41,110.54-23.11,128.86-74.81Z"/><path class="cls-3" d="M466.19,264.02c19.38,14.64,31.77,30.76,36.34,46.85-.91-56.5-42.94-106.45-101.12-116.05-3.05-.5-6.08-.88-9.1-1.15-4.99,9.39-9.67,19.83-13.96,31.13,43.07,10.5,71.12,26.59,87.84,39.22Z"/><path class="cls-2" d="M494,329.93c3.35-22.57-10.05-46.52-37.74-67.44-20.63-15.58-48.71-28.58-78.32-36.59-8.82,23.56-15.88,50.84-20.25,80.3-4.51,30.41-5.63,59.54-3.82,85.43,30.34,1.84,60.65-1.5,84.66-9.64,32.43-11,52.13-29.48,55.48-52.06Z"/><path class="cls-1" d="M394.83,195.02l.55-1.04c-2.07-.24-4.13-.42-6.19-.54-15.89,30.3-28.07,70.11-34.33,112.31-6.26,42.19-6.2,84.03.15,118,1.99.54,4.01,1.03,6.05,1.47l-.23-1.17c-6.47-33.58-6.59-75.26-.34-117.37s18.44-81.76,34.33-111.65Z"/><circle class="cls-1" cx="204.83" cy="242.15" r="22.81"/><path class="cls-1" d="M292.58,201.39c-19.83-42.69-32.89-86.84-36.86-124.52-56.17,33.47-79.03,104.68-50.89,165.27,28.14,60.59,97.31,89.07,159.11,67.74-26.23-27.34-51.54-65.8-71.36-108.49Z"/><path class="cls-1" d="M376.36,304.88c64.69-30.04,92.77-106.84,62.73-171.53-3-6.47-6.48-12.56-10.36-18.28-13.83-11.99-34.73-19.19-61.02-20.71-22.68-1.31-57.67,1.18-102.81,18.07.1.42.19.85.29,1.28,31.51-10.88,64.66-16.24,92.65-14.62,37.57,2.17,64.1,15.95,74.71,38.79s4.02,52-18.56,82.11c-16.72,22.3-42.01,44.06-70.45,61.07,7.78,10.25,15.7,19.53,23.61,27.68,3.09-1.16,6.17-2.45,9.22-3.86Z"/><path class="cls-1" d="M447.3,156.59c-1.96-7.85-4.68-15.63-8.21-23.24-3-6.47-6.48-12.56-10.36-18.28-13.83-11.99-34.73-19.19-61.02-20.71-22.68-1.31-57.67,1.18-102.81,18.07.1.42.19.85.29,1.28,31.51-10.88,64.66-16.24,92.65-14.62,37.57,2.17,64.1,15.95,74.71,38.79s4.02,52-18.56,82.11c-16.72,22.3-42.01,44.06-70.45,61.07.27.35.54.7.81,1.05,68.27-38.48,102.47-87.78,102.97-125.51Z"/><path class="cls-1" d="M447.3,156.59c-.49,37.73-34.69,87.03-102.97,125.52,7.53,9.83,15.18,18.75,22.82,26.63,3.09-1.16,6.17-2.45,9.22-3.86,57.08-26.51,85.65-89.42,70.94-148.29Z"/><path class="cls-3" d="M367.69,94.36c26.3,1.52,47.19,8.72,61.02,20.71-34.93-51.44-102.94-71.49-161.16-44.45-3.05,1.42-6.01,2.93-8.89,4.55,1.17,11.71,3.25,24.21,6.22,37.26,45.14-16.89,80.13-19.38,102.81-18.07Z"/><path class="cls-2" d="M432.54,137.88c-10.61-22.84-37.14-36.61-74.71-38.79-27.99-1.62-61.14,3.73-92.65,14.62,6.27,27.11,16.38,56.58,30.22,86.38,14.29,30.77,30.87,58.26,48.12,80.97,28.45-17.02,53.74-38.77,70.46-61.07,22.58-30.11,29.17-59.27,18.56-82.11Z"/><path class="cls-1" d="M261.75,74.87l-.13-1.3c-2.01,1.06-3.97,2.16-5.9,3.31,3.97,37.68,17.03,81.83,36.86,124.52,19.83,42.69,45.14,81.15,71.36,108.49,2.12-.73,4.24-1.52,6.34-2.37l-.91-.94c-26.1-26.91-51.37-65.2-71.16-107.8-19.79-42.6-32.74-86.61-36.46-123.91Z"/><circle class="cls-1" cx="150.01" cy="390.72" r="25.07"/><path class="cls-1" d="M225.18,315.54c-36.57-36.57-66.71-77.2-85.03-114.58-45.34,55.73-42.05,137.85,9.85,189.76,51.91,51.91,134.03,55.19,189.76,9.85-37.38-18.32-78.01-48.46-114.58-85.03Z"/><path class="cls-1" d="M350.69,390.72c55.42-55.42,55.42-145.26,0-200.68-5.54-5.54-11.43-10.52-17.59-14.95-18.8-7.15-43.07-6.69-70.79,1.66-23.9,7.21-59.07,22.98-99.28,57.44.26.4.52.8.78,1.21,28.41-23.12,60.6-41.16,90.09-50.05,39.59-11.93,72.17-7.73,91.73,11.83,19.56,19.56,23.77,52.14,11.83,91.73-8.84,29.33-26.72,61.31-49.66,89.61,11.9,7.64,23.57,14.22,34.82,19.65,2.76-2.36,5.44-4.85,8.05-7.46Z"/><path class="cls-1" d="M367.94,210.92c-4.99-7.36-10.73-14.36-17.25-20.88-5.54-5.54-11.43-10.52-17.59-14.95-18.8-7.15-43.07-6.69-70.79,1.66-23.9,7.21-59.07,22.98-99.28,57.44.26.4.52.8.78,1.21,28.41-23.12,60.6-41.16,90.09-50.05,39.59-11.93,72.17-7.73,91.73,11.83,19.56,19.56,23.77,52.14,11.83,91.73-8.84,29.33-26.72,61.31-49.66,89.61.41.26.82.52,1.23.78,55.93-65.48,72.62-129.26,58.89-168.38Z"/><path class="cls-1" d="M367.94,210.92c13.73,39.12-2.96,102.91-58.89,168.39,11.48,7.3,22.74,13.63,33.6,18.87,2.76-2.36,5.44-4.85,8.05-7.46,48.9-48.9,54.64-124.59,17.25-179.8Z"/><path class="cls-3" d="M262.31,176.75c27.71-8.35,51.99-8.81,70.79-1.66-55.45-39.9-133.21-34.92-183.08,14.95-2.61,2.61-5.1,5.3-7.46,8.05,5.63,11.65,12.49,23.76,20.48,36.1,40.21-34.47,75.37-50.24,99.28-57.44Z"/><path class="cls-2" d="M345.64,197.18c-19.56-19.56-52.14-23.77-91.73-11.83-29.5,8.89-61.68,26.93-90.1,50.05,16.71,25.61,38.25,52.2,63.79,77.73,26.36,26.36,53.84,48.47,80.22,65.4,22.94-28.3,40.82-60.29,49.66-89.61,11.93-39.59,7.73-72.17-11.83-91.73Z"/><path class="cls-1" d="M145.62,196.61l-.63-1.29c-1.67,1.85-3.28,3.73-4.84,5.65,18.32,37.38,48.46,78.01,85.03,114.58s77.2,66.71,114.58,85.03c1.91-1.56,3.8-3.17,5.65-4.84l-1.29-.63c-37.09-17.92-77.62-47.89-114.11-84.39-36.49-36.49-66.46-77.02-84.39-114.11Z"/><text class="cls-4" transform="translate(581.2 308.47)"><tspan x="0" y="0">jingle</tspan></text></svg>