<?xml version="1.0" encoding="UTF-8"?><svg id="a" xmlns="http://www.w3.org/2000/svg" viewBox="0 0 765.74 294.97"><defs><style>.c{fill:#d59849;}.d{fill:#819ac7;}.e{fill:#eec65b;}</style></defs><path class="c" d="M95.36,96.49c-12.83,34.78-14.45,76.02-4.86,112.43,36.41,9.61,77.66,8.01,112.46-4.83,14.37-5.59,29.96-14.39,38.15-27.71,1.6-7.05,2.45-14.38,2.45-21.92,0-54.45-44.14-98.59-98.59-98.59-7.5,0-14.81.84-21.84,2.43-13.56,8.3-22.01,23.61-27.77,38.17Z"/><path class="d" d="M235.33,105.94c2.17-4.24,3.41-9.05,3.41-14.15,0-17.17-13.92-31.1-31.1-31.1-5.1,0-9.9,1.23-14.15,3.41,17.7,9.54,32.29,24.14,41.84,41.84Z"/><path class="e" d="M75.12,204.08c1.74.64,3.5,1.24,5.26,1.83-7.15-25.8-7.59-53.46-2.68-79.69,4.62-22.99,15.03-50.23,34.73-64.83-38.46,13.44-66.06,50.04-66.06,93.09,0,13.92,2.89,27.16,8.1,39.17,6.48,4.28,13.65,7.67,20.65,10.44Z"/><path class="e" d="M88.13,227.39c-1.7-3.75-3.22-7.57-4.59-11.44-8.03-2.8-15.96-6.37-23.18-10.83,8.39,13.98,20.14,25.71,34.14,34.06-2.43-3.9-4.56-7.89-6.37-11.79Z"/><path class="e" d="M206.02,211.31c-31.44,14.21-67.48,16.74-101.17,10.43-3.69-.74-7.5-1.64-11.34-2.69.59,1.77,1.19,3.54,1.83,5.28,2.69,6.92,6.13,14.12,10.46,20.65,12.01,5.2,25.25,8.09,39.16,8.09,42.94,0,79.46-27.45,92.98-65.75-8.05,10.57-20.42,18.65-31.93,24Z"/><path class="d" d="M310.2,222.54l-9.69-10.22c3.29-2.82,5.87-6.31,7.75-10.48,1.88-4.17,2.82-9.07,2.82-14.71v-72.75h16.56v73.46c0,8.22-1.38,15.18-4.14,20.87-2.76,5.69-7.2,10.31-13.3,13.83ZM309.67,87.96c0-2.58,1.03-4.76,3.08-6.52,2.05-1.76,4.32-2.64,6.78-2.64s4.7.88,6.69,2.64c2,1.76,2.99,3.94,2.99,6.52s-1,4.9-2.99,6.61c-2,1.7-4.23,2.55-6.69,2.55s-4.73-.85-6.78-2.55c-2.06-1.7-3.08-3.9-3.08-6.61Z"/><path class="c" d="M353.7,87.96c0-2.58,1.03-4.76,3.08-6.52,2.05-1.76,4.32-2.64,6.78-2.64s4.7.88,6.69,2.64c2,1.76,3,3.94,3,6.52s-1,4.9-3,6.61c-2,1.7-4.23,2.55-6.69,2.55s-4.73-.85-6.78-2.55c-2.06-1.7-3.08-3.9-3.08-6.61ZM354.76,114.38h16.56v72.93h-16.56v-72.93Z"/><path class="c" d="M414.48,114.38l1.23,17.79-.53-2.82c2.23-5.4,5.99-9.72,11.27-12.95,5.29-3.23,11.45-4.84,18.5-4.84s12.42,2.03,16.82,6.08c4.4,4.05,6.66,9.31,6.78,15.77v53.9h-16.56v-48.27c-.12-3.88-1.26-7.07-3.44-9.6-2.17-2.52-5.55-3.79-10.13-3.79-4.11,0-7.9,1.18-11.36,3.52-3.47,2.35-6.17,5.58-8.1,9.69-1.94,4.11-2.91,8.87-2.91,14.27v34.17h-16.56v-72.93h14.97Z"/><path class="c" d="M532.32,223.6c-5.4,0-10.19-.65-14.36-1.94-4.17-1.29-7.93-3.06-11.27-5.28-3.35-2.23-6.61-4.7-9.78-7.4l9.69-11.27c3.88,3.52,7.81,6.28,11.8,8.28,3.99,2,8.46,2.99,13.39,2.99,5.52,0,10.19-.91,14-2.73,3.81-1.82,6.69-4.32,8.63-7.49,1.94-3.17,2.96-6.87,3.08-11.1l.18-19.73,1.41,3.17c-2.11,5.05-5.93,9.31-11.45,12.77-5.52,3.46-12.22,5.2-20.08,5.2-6.58,0-12.68-1.7-18.32-5.11-5.64-3.4-10.16-8.01-13.56-13.83-3.41-5.81-5.11-12.36-5.11-19.64s1.76-14.38,5.28-20.26c3.52-5.87,8.19-10.48,14-13.83,5.81-3.35,12.12-5.02,18.94-5.02,6.46,0,12.36,1.32,17.7,3.96,5.34,2.64,9.31,6.02,11.89,10.13l-1.06,2.99,1.58-14.09h15.15v73.46c0,6.58-1.67,12.56-5.02,17.97-3.35,5.4-8.16,9.72-14.44,12.95-6.28,3.23-13.71,4.84-22.28,4.84ZM507.13,150.14c0,4.7,1.14,8.98,3.43,12.86,2.29,3.88,5.34,6.93,9.16,9.16,3.82,2.23,8.02,3.35,12.6,3.35,4.34,0,8.25-.79,11.71-2.38,3.46-1.58,6.37-3.79,8.72-6.61,2.35-2.82,3.99-5.93,4.93-9.34v-14.62c-1.06-3.52-2.82-6.58-5.29-9.16-2.47-2.58-5.4-4.64-8.81-6.17-3.41-1.52-7.16-2.29-11.27-2.29-4.58,0-8.78,1.09-12.6,3.26-3.82,2.17-6.87,5.14-9.16,8.9-2.29,3.76-3.43,8.1-3.43,13.04Z"/><path class="c" d="M602.26,50.97h16.56v136.34h-16.56V50.97Z"/><path class="c" d="M681,189.07c-8.34,0-15.5-1.67-21.49-5.02-5.99-3.35-10.63-7.93-13.92-13.74-3.29-5.81-4.93-12.48-4.93-19.99s1.85-13.68,5.55-19.55c3.7-5.87,8.6-10.57,14.71-14.09,6.1-3.52,12.92-5.28,20.43-5.28,9.63,0,17.62,2.82,23.96,8.46,6.34,5.64,10.69,13.39,13.04,23.25l-60.25,21.14-3.88-9.69,49.15-18.14-3.35,2.47c-1.41-3.88-3.76-7.22-7.05-10.04-3.29-2.82-7.57-4.23-12.86-4.23-4.46,0-8.43,1.06-11.89,3.17-3.47,2.11-6.2,5.02-8.19,8.72-2,3.7-3,8.02-3,12.95s1.03,9.34,3.08,13.21c2.05,3.88,4.93,6.9,8.63,9.07,3.7,2.17,7.9,3.26,12.59,3.26,3.17,0,6.25-.59,9.25-1.76,3-1.17,5.84-2.7,8.54-4.58l7.4,12.15c-3.64,2.47-7.72,4.46-12.24,5.99-4.52,1.52-8.96,2.29-13.3,2.29Z"/></svg>
