<?xml version="1.0" encoding="UTF-8"?><svg id="Layer_1" xmlns="http://www.w3.org/2000/svg" xmlns:xlink="http://www.w3.org/1999/xlink" viewBox="0 0 1366 768"><defs><style>.cls-1{mask:url(#mask);}.cls-2{fill:#ed1c24;}.cls-2,.cls-3,.cls-4,.cls-5{stroke-width:0px;}.cls-6{filter:url(#luminosity-noclip);}.cls-3{fill:url(#radial-gradient);}.cls-4,.cls-7{fill:#000;}.cls-7{stroke:#000;stroke-miterlimit:10;stroke-width:7px;}.cls-5{fill:#fbf281;}</style><filter id="luminosity-noclip" x="83.1" y="215.39" width="401.64" height="365.4" color-interpolation-filters="sRGB" filterUnits="userSpaceOnUse"><feFlood flood-color="#fff" result="bg"/><feBlend in="SourceGraphic" in2="bg"/></filter><mask id="mask" x="83.1" y="215.39" width="401.64" height="365.4" maskUnits="userSpaceOnUse"><g class="cls-6"><path class="cls-4" d="M383.4,480.79c-15,3.77-33.75,13.64-39.17,29.33h0c-.72,2.17-.89,4.48-.47,6.73h0c-30.97,16.85-64.94,27.22-100.21,19.78-30.29-18.85-48.53-54.33-56.62-88.06h0c1.86-1.29,3.35-3.03,4.36-5.06h0c7.32-14.76,1.66-35.18-5.61-48.77h0c-4.54-8.07-17.62-21.46-24.89-8.08h0c-7.69,14.19-4.22,33.5,2.75,47.22h0c1.59,2.94,3.42,5.75,5.48,8.39h0c6.96,34.65,25.74,66.5,54.19,86.41h0c12.31,7.4,27.4,14.1,40.53,17.46h0c32.29,9.63,70.18-3.05,97.63-20.12h0c3.38-.27,6.75-.8,10.05-1.6h0c14.66-4.18,31.6-14.78,36.03-30.4h0c4.12-14.59-14.63-15.4-24.06-13.21h0Z"/><path class="cls-7" d="M234.85,544.46c-50.7-23.65-93.4-56.64-120.23-92.89-27.27-36.85-34.96-72.85-21.67-101.36,13.3-28.51,45.82-45.75,91.58-48.53,45.01-2.74,97.73,8.77,148.43,32.43,50.7,23.65,93.4,56.64,120.23,92.89,27.27,36.85,34.96,72.85,21.67,101.36-13.3,28.51-45.82,45.75-91.58,48.53-45.01,2.74-97.73-8.78-148.43-32.43ZM330.34,339.76c-102.67-47.89-207.02-42.2-232.61,12.67-25.6,54.88,37.1,138.48,139.77,186.37,102.67,47.89,207.02,42.2,232.61-12.67,25.6-54.88-37.1-138.48-139.77-186.37Z"/></g></mask><radialGradient id="radial-gradient" cx="405.14" cy="396.1" fx="389.01" fy="686.32" r="312.6" gradientTransform="translate(53.51 -38.77) rotate(22.83) scale(1 .71)" gradientUnits="userSpaceOnUse"><stop offset=".05" stop-color="#ed1c24"/><stop offset=".12" stop-color="#ed2323"/><stop offset=".21" stop-color="#ef3721"/><stop offset=".33" stop-color="#f3581d"/><stop offset=".46" stop-color="#f78518"/><stop offset=".59" stop-color="#fdb913"/><stop offset=".6" stop-color="#fcba16"/><stop offset=".66" stop-color="#fccf3f"/><stop offset=".73" stop-color="#fbdf5d"/><stop offset=".78" stop-color="#fbe86f"/><stop offset=".82" stop-color="#fbec76"/><stop offset=".86" stop-color="#fbf07e"/><stop offset=".92" stop-color="#fbf281"/></radialGradient></defs><path class="cls-2" d="M516.21,518.19c-6.26-4.9-9.4-11.94-9.4-21.14,0-18.99,16.05-33.58,48.16-43.75l31.42-147.99h42.28l-29.07,136.24c9.4-3.13,16.93-7.83,22.61-14.09,5.68-6.26,10.47-15.56,14.39-27.89h12.33c-5.29,17.42-12.43,30.2-21.44,38.32-9.01,8.13-19.19,13.65-30.54,16.59l-4.4,21.14c-3.92,18.99-10.67,32.05-20.26,39.2-9.59,7.14-20.45,10.72-32.59,10.72-9.4,0-17.22-2.45-23.49-7.34ZM542.64,495.87c3.13-4.5,5.58-10.96,7.34-19.38l1.76-8.52c-19.18,7.05-28.78,15.37-28.78,24.96,0,2.54.88,4.79,2.64,6.75,1.76,1.95,4.21,2.94,7.34,2.94,3.33,0,6.56-2.25,9.69-6.75ZM596.37,282.4c-4.51-4.5-6.75-9.98-6.75-16.44s2.25-11.99,6.75-16.59c4.5-4.6,9.98-6.9,16.44-6.9s11.99,2.3,16.59,6.9c4.6,4.6,6.9,10.13,6.9,16.59s-2.3,11.94-6.9,16.44c-4.6,4.5-10.13,6.75-16.59,6.75s-11.94-2.25-16.44-6.75Z"/><path class="cls-2" d="M642.91,445.08c-5.78-5.87-8.66-14.68-8.66-26.43,0-4.89.78-11.25,2.35-19.09l19.97-94.26h42.28l-21.14,99.83c-.78,2.94-1.17,6.07-1.17,9.4,0,3.92.93,6.71,2.79,8.37,1.86,1.67,4.94,2.5,9.25,2.5,5.68,0,10.96-2.4,15.86-7.19,4.89-4.79,8.41-11.01,10.57-18.65h12.33c-7.24,21.14-16.54,35.48-27.89,43.02-11.36,7.54-22.61,11.3-33.77,11.3-9.4,0-16.98-2.94-22.76-8.81ZM669.19,282.7c-4.51-4.5-6.75-9.98-6.75-16.44s2.25-11.99,6.75-16.59c4.5-4.6,9.98-6.9,16.44-6.9s11.99,2.3,16.59,6.9c4.6,4.6,6.9,10.13,6.9,16.59s-2.3,11.94-6.9,16.44c-4.6,4.51-10.13,6.75-16.59,6.75s-11.94-2.25-16.44-6.75Z"/><path class="cls-2" d="M794.71,444.34c-5.58-6.36-8.37-14.24-8.37-23.64,0-4.11.49-8.76,1.47-13.95.98-5.18,2-10.23,3.08-15.12,1.07-4.89,1.81-8.02,2.2-9.4,1.56-6.85,3.03-13.6,4.4-20.26,1.37-6.65,2.06-12.04,2.06-16.15,0-9.98-3.52-14.98-10.57-14.98-5.09,0-9.59,2.5-13.51,7.49-3.92,4.99-7.05,11.5-9.4,19.53l-19.97,94.26h-42.28l31.12-146.81h42.28l-3.23,15.27c9.79-10.96,21.24-16.44,34.35-16.44,9.98,0,17.91,2.74,23.78,8.22,5.87,5.48,8.81,13.8,8.81,24.96,0,5.68-.69,11.99-2.05,18.94-1.37,6.95-3.33,15.42-5.87,25.4-1.57,6.07-2.99,11.99-4.26,17.76-1.28,5.78-1.91,10.33-1.91,13.65,0,3.92.88,6.95,2.64,9.1,1.76,2.16,4.79,3.23,9.1,3.23,5.87,0,10.57-2.1,14.09-6.31,3.52-4.21,7.05-10.72,10.57-19.53h12.33c-7.24,21.54-15.61,35.97-25.11,43.31-9.5,7.34-19.33,11.01-29.51,11.01-11.94,0-20.7-3.18-26.28-9.54Z"/><path class="cls-2" d="M891.76,518.19c-6.27-4.9-9.4-11.94-9.4-21.14,0-11.16,4.5-20.11,13.51-26.87,9-6.75,20.45-12.38,34.35-16.88l3.52-15.56c-9.98,10.77-21.73,16.15-35.24,16.15-11.16,0-20.46-3.82-27.89-11.45-7.44-7.63-11.16-19.57-11.16-35.82,0-14.48,2.89-29.7,8.66-45.66,5.77-15.95,14.39-29.46,25.84-40.52,11.45-11.06,25.11-16.59,40.96-16.59,8.02,0,13.99,1.37,17.91,4.11,3.91,2.74,5.87,6.36,5.87,10.86v1.76l3.23-15.27h42.28l-29.07,136.24c9.4-3.13,16.93-7.83,22.61-14.09,5.68-6.26,10.47-15.56,14.39-27.89h12.33c-5.29,17.42-12.43,30.2-21.44,38.32-9.01,8.13-19.19,13.65-30.54,16.59l-4.4,21.14c-3.92,18.99-10.67,32.05-20.26,39.2-9.59,7.14-20.46,10.72-32.59,10.72-9.4,0-17.23-2.45-23.49-7.34ZM918.18,495.87c3.13-4.5,5.58-10.96,7.34-19.38l1.76-8.52c-19.19,7.05-28.78,15.37-28.78,24.96,0,2.54.88,4.79,2.64,6.75,1.76,1.95,4.21,2.94,7.34,2.94,3.33,0,6.56-2.25,9.69-6.75ZM931.4,419.24c4.7-4.11,7.93-9.69,9.69-16.74l14.98-69.59c0-2.35-.98-4.74-2.94-7.19-1.96-2.45-4.99-3.67-9.1-3.67-7.83,0-14.88,4.55-21.14,13.65-6.27,9.1-11.16,20.07-14.68,32.89-3.52,12.82-5.29,24.13-5.29,33.91s1.42,16.05,4.26,18.79c2.84,2.74,6.31,4.11,10.42,4.11,4.5,0,9.1-2.06,13.8-6.17Z"/><path class="cls-2" d="M1018.46,445.08c-5.78-5.87-8.66-14.68-8.66-26.43,0-4.89.78-11.25,2.35-19.09l31.42-147.11,43.46-5.87-33.77,158.56c-.79,2.94-1.17,6.07-1.17,9.4,0,3.92.93,6.71,2.79,8.37,1.86,1.67,4.94,2.5,9.25,2.5,5.67,0,10.96-2.4,15.86-7.19,4.89-4.79,8.42-11.01,10.57-18.65h12.33c-7.24,21.14-16.54,35.48-27.89,43.02-11.36,7.54-22.61,11.3-33.77,11.3-9.4,0-16.98-2.94-22.76-8.81Z"/><path class="cls-2" d="M1098.47,442.58c-8.02-7.53-12.04-19.33-12.04-35.38,0-13.51,2.64-28.38,7.93-44.63,5.29-16.25,13.9-30.29,25.84-42.14,11.94-11.84,27.11-17.76,45.51-17.76,21.53,0,32.3,9.4,32.3,28.19,0,10.97-3.13,21.04-9.4,30.24-6.27,9.2-14.58,16.59-24.96,22.17-10.38,5.58-21.44,8.76-33.18,9.54-.39,4.31-.59,7.24-.59,8.81,0,16.25,6.07,24.37,18.21,24.37,5.48,0,11.35-1.47,17.62-4.4,6.26-2.94,11.94-6.65,17.03-11.16-5.29,28.97-22.22,43.46-50.8,43.46-14.29,0-25.45-3.77-33.47-11.3ZM1153.52,371.37c6.56-4.7,11.84-10.72,15.86-18.06,4.01-7.34,6.02-15.02,6.02-23.05s-2.45-12.04-7.34-12.04c-6.85,0-13.65,6.22-20.41,18.65-6.75,12.43-11.8,26.38-15.12,41.84,7.44-.19,14.43-2.64,20.99-7.34Z"/><circle class="cls-5" cx="374.75" cy="244.55" r="22.49"/><g class="cls-1"><circle class="cls-3" cx="309.7" cy="384" r="168.57"/></g></svg>
